<svg width="24" height="24" viewBox="0 0 24 24" fill="none" xmlns="http://www.w3.org/2000/svg">
<path fill-rule="evenodd" clip-rule="evenodd" d="M0 0.75C0 0.335786 0.335786 0 0.75 0H12.75C13.1642 0 13.5 0.335786 13.5 0.75C13.5 1.16421 13.1642 1.5 12.75 1.5H0.75C0.335786 1.5 0 1.16421 0 0.75ZM0 6C0 5.58579 0.335786 5.25 0.75 5.25H12.75C13.1642 5.25 13.5 5.58579 13.5 6C13.5 6.41421 13.1642 6.75 12.75 6.75H0.75C0.335786 6.75 0 6.41421 0 6ZM0 11.25C0 10.8358 0.335786 10.5 0.75 10.5H12.75C13.1642 10.5 13.5 10.8358 13.5 11.25C13.5 11.6642 13.1642 12 12.75 12H0.75C0.335786 12 0 11.6642 0 11.25Z" transform="translate(5.25 6)" fill="white"/>
</svg>
